<svg width="390" height="276" viewBox="0 0 390 276" fill="none" xmlns="http://www.w3.org/2000/svg">
<g clip-path="url(#clip0_16996_4240)">
<rect width="390" height="276" fill="url(#paint0_linear_16996_4240)"/>
<g filter="url(#filter0_di_16996_4240)">
<rect x="231" y="6.21167" width="24" height="24" rx="4" transform="rotate(-15 231 6.21167)" fill="white"/>
</g>
<path d="M245.909 18.0556L242.845 12.8533L243.737 12.6144L245.998 16.6732L246.05 16.6592L246.023 12.0019L246.906 11.7651L249.212 15.8149L249.264 15.8009L249.189 11.1534L250.084 10.9137L250.028 16.952L249.175 17.1806L246.864 13.2881L246.82 13.2999L246.766 17.8262L245.909 18.0556Z" fill="#CD5BC6" fill-opacity="0.6"/>
<g filter="url(#filter1_di_16996_4240)">
<rect x="294.212" y="-20" width="24" height="24" rx="4" transform="rotate(15 294.212 -20)" fill="white"/>
</g>
<g filter="url(#filter2_di_16996_4240)">
<rect x="330.212" y="5" width="24" height="24" rx="4" transform="rotate(15 330.212 5)" fill="white"/>
</g>
<path d="M341.092 18.6808C341.133 18.4131 341.066 18.1795 340.892 17.98C340.718 17.7786 340.471 17.6348 340.149 17.5485C339.918 17.4867 339.709 17.4699 339.521 17.498C339.334 17.5242 339.176 17.588 339.049 17.6892C338.925 17.7891 338.841 17.9186 338.798 18.0778C338.762 18.2113 338.763 18.3349 338.799 18.4485C338.837 18.5626 338.898 18.6664 338.983 18.7597C339.07 18.8516 339.167 18.9355 339.274 19.0113C339.382 19.0852 339.487 19.1506 339.59 19.2075L340.1 19.4972C340.268 19.5891 340.436 19.6979 340.604 19.8234C340.772 19.9489 340.92 20.0945 341.049 20.2602C341.177 20.4259 341.266 20.6125 341.316 20.8201C341.368 21.0282 341.361 21.2584 341.293 21.5109C341.208 21.8292 341.05 22.0898 340.819 22.2926C340.59 22.496 340.301 22.6273 339.951 22.6867C339.604 22.7466 339.211 22.7177 338.772 22.6C338.351 22.4873 338.005 22.3229 337.733 22.1071C337.462 21.8912 337.272 21.6373 337.164 21.3456C337.056 21.0521 337.038 20.7337 337.111 20.3903L337.962 20.6183C337.924 20.8257 337.944 21.0126 338.023 21.1789C338.104 21.3438 338.227 21.4834 338.39 21.5978C338.556 21.7109 338.748 21.7966 338.965 21.8549C339.205 21.9191 339.428 21.9387 339.635 21.9137C339.844 21.8874 340.021 21.821 340.165 21.7145C340.31 21.6062 340.406 21.4606 340.455 21.2777C340.5 21.1112 340.489 20.9622 340.422 20.8306C340.357 20.6995 340.254 20.5776 340.111 20.4649C339.971 20.3528 339.807 20.2432 339.62 20.1362L339.005 19.7772C338.587 19.534 338.279 19.2582 338.079 18.9498C337.881 18.6419 337.835 18.2922 337.94 17.9007C338.027 17.5769 338.19 17.3178 338.43 17.1234C338.671 16.9289 338.959 16.8051 339.295 16.752C339.631 16.697 339.987 16.72 340.364 16.821C340.745 16.9229 341.063 17.0797 341.318 17.2911C341.575 17.5031 341.756 17.7487 341.861 18.028C341.967 18.3054 341.984 18.5961 341.91 18.8999L341.092 18.6808Z" fill="#CD5BC6" fill-opacity="0.6"/>
<g filter="url(#filter3_di_16996_4240)">
<rect x="370.588" y="6" width="10" height="10" rx="2" transform="rotate(15 370.588 6)" fill="white"/>
</g>
<g filter="url(#filter4_di_16996_4240)">
<rect x="386.588" y="40" width="10" height="10" rx="2" transform="rotate(15 386.588 40)" fill="white"/>
</g>
<g filter="url(#filter5_f_16996_4240)">
<rect x="201.07" y="12" width="4" height="4" rx="1" transform="rotate(15 201.07 12)" fill="white" fill-opacity="0.5"/>
</g>
<g filter="url(#filter6_f_16996_4240)">
<rect x="289" y="28.0706" width="4" height="4" rx="1" transform="rotate(-15 289 28.0706)" fill="white" fill-opacity="0.5"/>
</g>
<g filter="url(#filter7_f_16996_4240)">
<rect x="343" y="50.0353" width="4" height="4" rx="1" transform="rotate(-15 343 50.0353)" fill="white" fill-opacity="0.5"/>
</g>
<g filter="url(#filter8_f_16996_4240)">
<rect x="373" y="32.0353" width="4" height="4" rx="1" transform="rotate(-15 373 32.0353)" fill="white" fill-opacity="0.5"/>
</g>
<g filter="url(#filter9_f_16996_4240)">
<rect x="265" y="49.0353" width="4" height="4" rx="1" transform="rotate(-15 265 49.0353)" fill="white" fill-opacity="0.5"/>
</g>
</g>
<defs>
<filter id="filter0_di_16996_4240" x="227.898" y="-1.10205" width="35.5979" height="35.5979" filterUnits="userSpaceOnUse" color-interpolation-filters="sRGB">
<feFlood flood-opacity="0" result="BackgroundImageFix"/>
<feColorMatrix in="SourceAlpha" type="matrix" values="0 0 0 0 0 0 0 0 0 0 0 0 0 0 0 0 0 0 127 0" result="hardAlpha"/>
<feOffset dy="2"/>
<feGaussianBlur stdDeviation="2"/>
<feComposite in2="hardAlpha" operator="out"/>
<feColorMatrix type="matrix" values="0 0 0 0 0.890196 0 0 0 0 0.756863 0 0 0 0 0.847059 0 0 0 0.6 0"/>
<feBlend mode="normal" in2="BackgroundImageFix" result="effect1_dropShadow_16996_4240"/>
<feBlend mode="normal" in="SourceGraphic" in2="effect1_dropShadow_16996_4240" result="shape"/>
<feColorMatrix in="SourceAlpha" type="matrix" values="0 0 0 0 0 0 0 0 0 0 0 0 0 0 0 0 0 0 127 0" result="hardAlpha"/>
<feOffset dx="2" dy="-2"/>
<feGaussianBlur stdDeviation="1"/>
<feComposite in2="hardAlpha" operator="arithmetic" k2="-1" k3="1"/>
<feColorMatrix type="matrix" values="0 0 0 0 0.976471 0 0 0 0 0.92549 0 0 0 0 0.992157 0 0 0 1 0"/>
<feBlend mode="normal" in2="shape" result="effect2_innerShadow_16996_4240"/>
</filter>
<filter id="filter1_di_16996_4240" x="284.898" y="-21.1021" width="35.5979" height="35.5979" filterUnits="userSpaceOnUse" color-interpolation-filters="sRGB">
<feFlood flood-opacity="0" result="BackgroundImageFix"/>
<feColorMatrix in="SourceAlpha" type="matrix" values="0 0 0 0 0 0 0 0 0 0 0 0 0 0 0 0 0 0 127 0" result="hardAlpha"/>
<feOffset dy="2"/>
<feGaussianBlur stdDeviation="2"/>
<feComposite in2="hardAlpha" operator="out"/>
<feColorMatrix type="matrix" values="0 0 0 0 0.890196 0 0 0 0 0.756863 0 0 0 0 0.847059 0 0 0 0.6 0"/>
<feBlend mode="normal" in2="BackgroundImageFix" result="effect1_dropShadow_16996_4240"/>
<feBlend mode="normal" in="SourceGraphic" in2="effect1_dropShadow_16996_4240" result="shape"/>
<feColorMatrix in="SourceAlpha" type="matrix" values="0 0 0 0 0 0 0 0 0 0 0 0 0 0 0 0 0 0 127 0" result="hardAlpha"/>
<feOffset dx="2" dy="-2"/>
<feGaussianBlur stdDeviation="1"/>
<feComposite in2="hardAlpha" operator="arithmetic" k2="-1" k3="1"/>
<feColorMatrix type="matrix" values="0 0 0 0 0.976471 0 0 0 0 0.92549 0 0 0 0 0.992157 0 0 0 1 0"/>
<feBlend mode="normal" in2="shape" result="effect2_innerShadow_16996_4240"/>
</filter>
<filter id="filter2_di_16996_4240" x="320.898" y="3.89795" width="35.5979" height="35.5979" filterUnits="userSpaceOnUse" color-interpolation-filters="sRGB">
<feFlood flood-opacity="0" result="BackgroundImageFix"/>
<feColorMatrix in="SourceAlpha" type="matrix" values="0 0 0 0 0 0 0 0 0 0 0 0 0 0 0 0 0 0 127 0" result="hardAlpha"/>
<feOffset dy="2"/>
<feGaussianBlur stdDeviation="2"/>
<feComposite in2="hardAlpha" operator="out"/>
<feColorMatrix type="matrix" values="0 0 0 0 0.890196 0 0 0 0 0.756863 0 0 0 0 0.847059 0 0 0 0.6 0"/>
<feBlend mode="normal" in2="BackgroundImageFix" result="effect1_dropShadow_16996_4240"/>
<feBlend mode="normal" in="SourceGraphic" in2="effect1_dropShadow_16996_4240" result="shape"/>
<feColorMatrix in="SourceAlpha" type="matrix" values="0 0 0 0 0 0 0 0 0 0 0 0 0 0 0 0 0 0 127 0" result="hardAlpha"/>
<feOffset dx="2" dy="-2"/>
<feGaussianBlur stdDeviation="1"/>
<feComposite in2="hardAlpha" operator="arithmetic" k2="-1" k3="1"/>
<feColorMatrix type="matrix" values="0 0 0 0 0.976471 0 0 0 0 0.92549 0 0 0 0 0.992157 0 0 0 1 0"/>
<feBlend mode="normal" in2="shape" result="effect2_innerShadow_16996_4240"/>
</filter>
<filter id="filter3_di_16996_4240" x="366.449" y="5.44897" width="15.3495" height="16.3495" filterUnits="userSpaceOnUse" color-interpolation-filters="sRGB">
<feFlood flood-opacity="0" result="BackgroundImageFix"/>
<feColorMatrix in="SourceAlpha" type="matrix" values="0 0 0 0 0 0 0 0 0 0 0 0 0 0 0 0 0 0 127 0" result="hardAlpha"/>
<feOffset dy="2"/>
<feGaussianBlur stdDeviation="1"/>
<feComposite in2="hardAlpha" operator="out"/>
<feColorMatrix type="matrix" values="0 0 0 0 0.950716 0 0 0 0 0.814762 0 0 0 0 0.907664 0 0 0 0.6 0"/>
<feBlend mode="normal" in2="BackgroundImageFix" result="effect1_dropShadow_16996_4240"/>
<feBlend mode="normal" in="SourceGraphic" in2="effect1_dropShadow_16996_4240" result="shape"/>
<feColorMatrix in="SourceAlpha" type="matrix" values="0 0 0 0 0 0 0 0 0 0 0 0 0 0 0 0 0 0 127 0" result="hardAlpha"/>
<feOffset dy="-1"/>
<feGaussianBlur stdDeviation="1"/>
<feComposite in2="hardAlpha" operator="arithmetic" k2="-1" k3="1"/>
<feColorMatrix type="matrix" values="0 0 0 0 0.976471 0 0 0 0 0.92549 0 0 0 0 0.992157 0 0 0 1 0"/>
<feBlend mode="normal" in2="shape" result="effect2_innerShadow_16996_4240"/>
</filter>
<filter id="filter4_di_16996_4240" x="382.449" y="39.449" width="15.3495" height="16.3495" filterUnits="userSpaceOnUse" color-interpolation-filters="sRGB">
<feFlood flood-opacity="0" result="BackgroundImageFix"/>
<feColorMatrix in="SourceAlpha" type="matrix" values="0 0 0 0 0 0 0 0 0 0 0 0 0 0 0 0 0 0 127 0" result="hardAlpha"/>
<feOffset dy="2"/>
<feGaussianBlur stdDeviation="1"/>
<feComposite in2="hardAlpha" operator="out"/>
<feColorMatrix type="matrix" values="0 0 0 0 0.950716 0 0 0 0 0.814762 0 0 0 0 0.907664 0 0 0 0.6 0"/>
<feBlend mode="normal" in2="BackgroundImageFix" result="effect1_dropShadow_16996_4240"/>
<feBlend mode="normal" in="SourceGraphic" in2="effect1_dropShadow_16996_4240" result="shape"/>
<feColorMatrix in="SourceAlpha" type="matrix" values="0 0 0 0 0 0 0 0 0 0 0 0 0 0 0 0 0 0 127 0" result="hardAlpha"/>
<feOffset dy="-1"/>
<feGaussianBlur stdDeviation="1"/>
<feComposite in2="hardAlpha" operator="arithmetic" k2="-1" k3="1"/>
<feColorMatrix type="matrix" values="0 0 0 0 0.976471 0 0 0 0 0.92549 0 0 0 0 0.992157 0 0 0 1 0"/>
<feBlend mode="normal" in2="shape" result="effect2_innerShadow_16996_4240"/>
</filter>
<filter id="filter5_f_16996_4240" x="199.26" y="11.2245" width="6.45001" height="6.44995" filterUnits="userSpaceOnUse" color-interpolation-filters="sRGB">
<feFlood flood-opacity="0" result="BackgroundImageFix"/>
<feBlend mode="normal" in="SourceGraphic" in2="BackgroundImageFix" result="shape"/>
<feGaussianBlur stdDeviation="0.5" result="effect1_foregroundBlur_16996_4240"/>
</filter>
<filter id="filter6_f_16996_4240" x="288.225" y="26.2598" width="6.44998" height="6.44995" filterUnits="userSpaceOnUse" color-interpolation-filters="sRGB">
<feFlood flood-opacity="0" result="BackgroundImageFix"/>
<feBlend mode="normal" in="SourceGraphic" in2="BackgroundImageFix" result="shape"/>
<feGaussianBlur stdDeviation="0.5" result="effect1_foregroundBlur_16996_4240"/>
</filter>
<filter id="filter7_f_16996_4240" x="342.225" y="48.2245" width="6.44998" height="6.44995" filterUnits="userSpaceOnUse" color-interpolation-filters="sRGB">
<feFlood flood-opacity="0" result="BackgroundImageFix"/>
<feBlend mode="normal" in="SourceGraphic" in2="BackgroundImageFix" result="shape"/>
<feGaussianBlur stdDeviation="0.5" result="effect1_foregroundBlur_16996_4240"/>
</filter>
<filter id="filter8_f_16996_4240" x="372.225" y="30.2245" width="6.44999" height="6.44995" filterUnits="userSpaceOnUse" color-interpolation-filters="sRGB">
<feFlood flood-opacity="0" result="BackgroundImageFix"/>
<feBlend mode="normal" in="SourceGraphic" in2="BackgroundImageFix" result="shape"/>
<feGaussianBlur stdDeviation="0.5" result="effect1_foregroundBlur_16996_4240"/>
</filter>
<filter id="filter9_f_16996_4240" x="264.225" y="47.2245" width="6.44998" height="6.44995" filterUnits="userSpaceOnUse" color-interpolation-filters="sRGB">
<feFlood flood-opacity="0" result="BackgroundImageFix"/>
<feBlend mode="normal" in="SourceGraphic" in2="BackgroundImageFix" result="shape"/>
<feGaussianBlur stdDeviation="0.5" result="effect1_foregroundBlur_16996_4240"/>
</filter>
<linearGradient id="paint0_linear_16996_4240" x1="217.5" y1="23" x2="261.642" y2="273.863" gradientUnits="userSpaceOnUse">
<stop stop-color="#FF00AE" stop-opacity="0.16"/>
<stop offset="1" stop-color="white" stop-opacity="0"/>
</linearGradient>
<clipPath id="clip0_16996_4240">
<rect width="390" height="276" fill="white"/>
</clipPath>
</defs>
</svg>
