<svg width="291" height="" viewBox="15 8 195 39" fill="none" xmlns="http://www.w3.org/2000/svg">
<g filter="url(#filter0_d_16996_4261)">
<rect x="16" y="16" width="24" height="24" rx="8" fill="url(#paint0_linear_16996_4261)" shape-rendering="crispEdges"/>
<rect x="16.5" y="16.5" width="23" height="23" rx="7.5" stroke="url(#paint1_linear_16996_4261)" shape-rendering="crispEdges"/>
</g>
<path d="M29.25 30.75L23.5 25V23.5H25L30.75 29.25" stroke="#3C1661" stroke-linecap="round" stroke-linejoin="round"/>
<path d="M28.5 31.5L31.5 28.5" stroke="#3C1661" stroke-linecap="round" stroke-linejoin="round"/>
<path d="M30 30L32 32" stroke="#3C1661" stroke-linecap="round" stroke-linejoin="round"/>
<path d="M31.5 32.5L32.5 31.5" stroke="#3C1661" stroke-linecap="round" stroke-linejoin="round"/>
<path d="M29.25 25.25L31 23.5H32.5V25L30.75 26.75" stroke="#3C1661" stroke-linecap="round" stroke-linejoin="round"/>
<path d="M24.5 29L26.5 31" stroke="#3C1661" stroke-linecap="round" stroke-linejoin="round"/>
<path d="M25.5 30.5L24 32" stroke="#3C1661" stroke-linecap="round" stroke-linejoin="round"/>
<path d="M23.5 31.5L24.5 32.5" stroke="#3C1661" stroke-linecap="round" stroke-linejoin="round"/>
<path d="M59.179 25.0994C59.0606 24.7159 58.8973 24.3726 58.6889 24.0696C58.4853 23.7618 58.2391 23.4991 57.9503 23.2812C57.6662 23.0634 57.3395 22.9001 56.9702 22.7912C56.6009 22.6776 56.1984 22.6207 55.7628 22.6207C54.9815 22.6207 54.2855 22.8172 53.6747 23.2102C53.0639 23.6032 52.5833 24.1809 52.233 24.9432C51.8873 25.7008 51.7145 26.6241 51.7145 27.7131C51.7145 28.8116 51.8873 29.742 52.233 30.5043C52.5786 31.2666 53.0592 31.8466 53.6747 32.2443C54.2902 32.6373 55.0052 32.8338 55.8196 32.8338C56.5582 32.8338 57.1974 32.6918 57.7372 32.4077C58.2817 32.1236 58.7008 31.7211 58.9943 31.2003C59.2879 30.6747 59.4347 30.0592 59.4347 29.3537L60.0312 29.446H56.0824V27.3864H61.9844V29.1335C61.9844 30.3788 61.7192 31.456 61.1889 32.3651C60.6586 33.2741 59.9295 33.9749 59.0014 34.4673C58.0734 34.955 57.008 35.1989 55.8054 35.1989C54.4654 35.1989 53.2888 34.8982 52.2756 34.2969C51.267 33.6908 50.4787 32.8314 49.9105 31.7188C49.3471 30.6013 49.0653 29.2756 49.0653 27.7415C49.0653 26.5672 49.2311 25.5185 49.5625 24.5952C49.8987 23.6719 50.3674 22.8883 50.9688 22.2443C51.5701 21.5956 52.2756 21.1032 53.0852 20.767C53.8949 20.4261 54.7756 20.2557 55.7273 20.2557C56.5322 20.2557 57.2827 20.3741 57.9787 20.6108C58.6747 20.8428 59.2926 21.1742 59.8324 21.6051C60.3769 22.036 60.8243 22.5473 61.1747 23.1392C61.5251 23.7311 61.7547 24.3845 61.8636 25.0994H59.179ZM67.5579 35.2202C66.8666 35.2202 66.244 35.0971 65.69 34.8509C65.1407 34.5999 64.7051 34.2306 64.3832 33.7429C64.0659 33.2552 63.9073 32.6539 63.9073 31.9389C63.9073 31.3234 64.021 30.8144 64.2482 30.4119C64.4755 30.0095 64.7856 29.6875 65.1786 29.446C65.5716 29.2045 66.0143 29.0223 66.5067 28.8991C67.0039 28.7713 67.5176 28.679 68.0479 28.6222C68.6871 28.5559 69.2056 28.4967 69.6033 28.4446C70.0011 28.3878 70.2899 28.3026 70.4698 28.1889C70.6545 28.0705 70.7468 27.8883 70.7468 27.642V27.5994C70.7468 27.0644 70.5882 26.6501 70.271 26.3565C69.9537 26.063 69.4968 25.9162 68.9002 25.9162C68.2705 25.9162 67.771 26.0535 67.4016 26.3281C67.0371 26.6027 66.7908 26.9271 66.663 27.3011L64.2624 26.9602C64.4518 26.2973 64.7643 25.7434 65.1999 25.2983C65.6355 24.8485 66.1682 24.5123 66.7979 24.2898C67.4277 24.0625 68.1237 23.9489 68.886 23.9489C69.4116 23.9489 69.9348 24.0104 70.4556 24.1335C70.9764 24.2566 71.4523 24.4602 71.8832 24.7443C72.314 25.0237 72.6597 25.4048 72.9201 25.8878C73.1853 26.3707 73.3178 26.9744 73.3178 27.6989V35H70.8462V33.5014H70.761C70.6048 33.8045 70.3846 34.0885 70.1005 34.3537C69.8211 34.6141 69.4684 34.8248 69.0423 34.9858C68.6209 35.142 68.1261 35.2202 67.5579 35.2202ZM68.2255 33.331C68.7416 33.331 69.189 33.2292 69.5678 33.0256C69.9466 32.8172 70.2378 32.5426 70.4414 32.2017C70.6497 31.8608 70.7539 31.4891 70.7539 31.0866V29.8011C70.6734 29.8674 70.5361 29.929 70.342 29.9858C70.1526 30.0426 69.9395 30.0923 69.7028 30.1349C69.466 30.1776 69.2317 30.2154 68.9996 30.2486C68.7676 30.2817 68.5664 30.3101 68.396 30.3338C68.0124 30.3859 67.6692 30.4711 67.3661 30.5895C67.0631 30.7079 66.824 30.8736 66.6488 31.0866C66.4736 31.295 66.386 31.5649 66.386 31.8963C66.386 32.3698 66.5588 32.7273 66.9045 32.9688C67.2501 33.2102 67.6905 33.331 68.2255 33.331ZM75.9031 35V24.0909H78.3604V25.9446H78.4883C78.7156 25.3196 79.092 24.8319 79.6175 24.4815C80.1431 24.1264 80.7705 23.9489 81.4996 23.9489C82.2383 23.9489 82.8609 24.1288 83.3675 24.4886C83.8789 24.8437 84.2388 25.3291 84.4471 25.9446H84.5607C84.8022 25.3385 85.2094 24.8556 85.7823 24.4957C86.36 24.1312 87.0442 23.9489 87.8349 23.9489C88.8387 23.9489 89.6578 24.2661 90.2923 24.9006C90.9267 25.535 91.244 26.4607 91.244 27.6776V35H88.6658V28.0753C88.6658 27.3982 88.4859 26.9034 88.1261 26.5909C87.7662 26.2737 87.3259 26.1151 86.805 26.1151C86.1848 26.1151 85.6995 26.3092 85.3491 26.6974C85.0034 27.081 84.8306 27.5805 84.8306 28.196V35H82.3093V27.9688C82.3093 27.4053 82.1388 26.9555 81.7979 26.6193C81.4618 26.2831 81.0214 26.1151 80.4769 26.1151C80.1076 26.1151 79.7714 26.2098 79.4684 26.3991C79.1654 26.5838 78.9239 26.8466 78.744 27.1875C78.564 27.5237 78.4741 27.9167 78.4741 28.3665V35H75.9031ZM93.8523 35V24.0909H96.4233V35H93.8523ZM95.1449 22.5426C94.7377 22.5426 94.3873 22.4077 94.0938 22.1378C93.8002 21.8632 93.6534 21.5341 93.6534 21.1506C93.6534 20.7623 93.8002 20.4332 94.0938 20.1634C94.3873 19.8887 94.7377 19.7514 95.1449 19.7514C95.5568 19.7514 95.9072 19.8887 96.196 20.1634C96.4896 20.4332 96.6364 20.7623 96.6364 21.1506C96.6364 21.5341 96.4896 21.8632 96.196 22.1378C95.9072 22.4077 95.5568 22.5426 95.1449 22.5426ZM101.638 28.608V35H99.0671V24.0909H101.525V25.9446H101.652C101.903 25.3338 102.303 24.8485 102.853 24.4886C103.407 24.1288 104.091 23.9489 104.905 23.9489C105.658 23.9489 106.314 24.1098 106.873 24.4318C107.436 24.7538 107.872 25.2202 108.179 25.831C108.492 26.4418 108.646 27.1828 108.641 28.054V35H106.07V28.4517C106.07 27.7225 105.881 27.152 105.502 26.7401C105.128 26.3281 104.609 26.1222 103.946 26.1222C103.497 26.1222 103.096 26.2216 102.746 26.4205C102.4 26.6146 102.128 26.8963 101.929 27.2656C101.735 27.6349 101.638 28.0824 101.638 28.608ZM115.999 39.3182C115.076 39.3182 114.283 39.1927 113.62 38.9418C112.957 38.6955 112.424 38.3641 112.022 37.9474C111.619 37.5308 111.34 37.0691 111.184 36.5625L113.499 36.0014C113.603 36.2145 113.755 36.4252 113.953 36.6335C114.152 36.8466 114.42 37.0218 114.756 37.1591C115.097 37.3011 115.525 37.3722 116.042 37.3722C116.771 37.3722 117.374 37.1946 117.853 36.8395C118.331 36.4891 118.57 35.9115 118.57 35.1065V33.0398H118.442C118.31 33.3049 118.115 33.5772 117.86 33.8565C117.609 34.1359 117.275 34.3703 116.858 34.5597C116.446 34.7491 115.928 34.8438 115.303 34.8438C114.465 34.8438 113.705 34.6473 113.023 34.2543C112.346 33.8565 111.806 33.2647 111.404 32.4787C111.006 31.688 110.807 30.6984 110.807 29.5099C110.807 28.312 111.006 27.3011 111.404 26.4773C111.806 25.6487 112.348 25.0213 113.03 24.5952C113.712 24.1643 114.472 23.9489 115.31 23.9489C115.949 23.9489 116.475 24.0578 116.887 24.2756C117.303 24.4886 117.635 24.7467 117.881 25.0497C118.127 25.348 118.314 25.6297 118.442 25.8949H118.584V24.0909H121.12V35.1776C121.12 36.1103 120.897 36.8821 120.452 37.4929C120.007 38.1037 119.399 38.5606 118.627 38.8636C117.855 39.1667 116.979 39.3182 115.999 39.3182ZM116.02 32.8267C116.565 32.8267 117.029 32.6941 117.412 32.429C117.796 32.1638 118.087 31.7827 118.286 31.2855C118.485 30.7884 118.584 30.1918 118.584 29.4957C118.584 28.8092 118.485 28.2079 118.286 27.6918C118.092 27.1757 117.803 26.7756 117.419 26.4915C117.041 26.2027 116.574 26.0582 116.02 26.0582C115.447 26.0582 114.969 26.2074 114.586 26.5057C114.202 26.804 113.913 27.2135 113.719 27.7344C113.525 28.2505 113.428 28.8376 113.428 29.4957C113.428 30.1634 113.525 30.7481 113.719 31.25C113.918 31.7472 114.209 32.1354 114.593 32.4148C114.981 32.6894 115.457 32.8267 116.02 32.8267ZM128.829 35V20.4545H131.464V26.6122H138.204V20.4545H140.846V35H138.204V28.821H131.464V35H128.829ZM146.738 35.2202C146.046 35.2202 145.424 35.0971 144.87 34.8509C144.32 34.5999 143.885 34.2306 143.563 33.7429C143.246 33.2552 143.087 32.6539 143.087 31.9389C143.087 31.3234 143.201 30.8144 143.428 30.4119C143.655 30.0095 143.965 29.6875 144.358 29.446C144.751 29.2045 145.194 29.0223 145.686 28.8991C146.184 28.7713 146.697 28.679 147.228 28.6222C147.867 28.5559 148.385 28.4967 148.783 28.4446C149.181 28.3878 149.47 28.3026 149.65 28.1889C149.834 28.0705 149.926 27.8883 149.926 27.642V27.5994C149.926 27.0644 149.768 26.6501 149.451 26.3565C149.133 26.063 148.676 25.9162 148.08 25.9162C147.45 25.9162 146.951 26.0535 146.581 26.3281C146.217 26.6027 145.971 26.9271 145.843 27.3011L143.442 26.9602C143.632 26.2973 143.944 25.7434 144.38 25.2983C144.815 24.8485 145.348 24.5123 145.978 24.2898C146.607 24.0625 147.303 23.9489 148.066 23.9489C148.591 23.9489 149.114 24.0104 149.635 24.1335C150.156 24.2566 150.632 24.4602 151.063 24.7443C151.494 25.0237 151.839 25.4048 152.1 25.8878C152.365 26.3707 152.498 26.9744 152.498 27.6989V35H150.026V33.5014H149.941C149.784 33.8045 149.564 34.0885 149.28 34.3537C149.001 34.6141 148.648 34.8248 148.222 34.9858C147.801 35.142 147.306 35.2202 146.738 35.2202ZM147.405 33.331C147.921 33.331 148.369 33.2292 148.748 33.0256C149.126 32.8172 149.417 32.5426 149.621 32.2017C149.829 31.8608 149.934 31.4891 149.934 31.0866V29.8011C149.853 29.8674 149.716 29.929 149.522 29.9858C149.332 30.0426 149.119 30.0923 148.882 30.1349C148.646 30.1776 148.411 30.2154 148.179 30.2486C147.947 30.2817 147.746 30.3101 147.576 30.3338C147.192 30.3859 146.849 30.4711 146.546 30.5895C146.243 30.7079 146.004 30.8736 145.828 31.0866C145.653 31.295 145.566 31.5649 145.566 31.8963C145.566 32.3698 145.739 32.7273 146.084 32.9688C146.43 33.2102 146.87 33.331 147.405 33.331ZM164.436 24.0909L160.551 35H157.711L153.826 24.0909H156.567L159.074 32.1946H159.188L161.702 24.0909H164.436ZM170.674 35.2131C169.58 35.2131 168.636 34.9858 167.84 34.5312C167.049 34.072 166.441 33.4233 166.015 32.5852C165.589 31.7424 165.376 30.7505 165.376 29.6094C165.376 28.4872 165.589 27.5024 166.015 26.6548C166.446 25.8026 167.047 25.1397 167.819 24.6662C168.591 24.188 169.497 23.9489 170.539 23.9489C171.211 23.9489 171.846 24.0578 172.442 24.2756C173.044 24.4886 173.574 24.8201 174.033 25.2699C174.497 25.7197 174.862 26.2926 175.127 26.9886C175.392 27.6799 175.525 28.5038 175.525 29.4602V30.2486H166.583V28.5156H173.06C173.056 28.0232 172.949 27.5852 172.741 27.2017C172.532 26.8134 172.241 26.508 171.867 26.2855C171.498 26.063 171.067 25.9517 170.575 25.9517C170.049 25.9517 169.587 26.0795 169.19 26.3352C168.792 26.5862 168.482 26.9176 168.259 27.3295C168.041 27.7367 167.93 28.1842 167.925 28.6719V30.1847C167.925 30.8191 168.041 31.3636 168.273 31.8182C168.505 32.268 168.83 32.6136 169.246 32.8551C169.663 33.0919 170.151 33.2102 170.71 33.2102C171.084 33.2102 171.422 33.1581 171.725 33.054C172.028 32.9451 172.291 32.7865 172.513 32.5781C172.736 32.3698 172.904 32.1117 173.018 31.804L175.418 32.0739C175.267 32.7083 174.978 33.2623 174.552 33.7358C174.13 34.2045 173.591 34.5691 172.933 34.8295C172.274 35.0852 171.522 35.2131 170.674 35.2131ZM180.271 28.608V35H177.7V24.0909H180.157V25.9446H180.285C180.536 25.3338 180.936 24.8485 181.485 24.4886C182.039 24.1288 182.724 23.9489 183.538 23.9489C184.291 23.9489 184.947 24.1098 185.505 24.4318C186.069 24.7538 186.504 25.2202 186.812 25.831C187.125 26.4418 187.279 27.1828 187.274 28.054V35H184.703V28.4517C184.703 27.7225 184.513 27.152 184.135 26.7401C183.761 26.3281 183.242 26.1222 182.579 26.1222C182.129 26.1222 181.729 26.2216 181.379 26.4205C181.033 26.6146 180.761 26.8963 180.562 27.2656C180.368 27.6349 180.271 28.0824 180.271 28.608ZM194.692 35V33.3594L202.15 22.6634H194.65V20.4545H205.417V22.0952L197.966 32.7912H205.459V35H194.692Z" fill="url(#paint2_linear_16996_4261)"/>
<defs>
<filter id="filter0_d_16996_4261" x="-8" y="0" width="72" height="72" filterUnits="userSpaceOnUse" color-interpolation-filters="sRGB">
<feFlood flood-opacity="0" result="BackgroundImageFix"/>
<feColorMatrix in="SourceAlpha" type="matrix" values="0 0 0 0 0 0 0 0 0 0 0 0 0 0 0 0 0 0 127 0" result="hardAlpha"/>
<feOffset dy="8"/>
<feGaussianBlur stdDeviation="12"/>
<feComposite in2="hardAlpha" operator="out"/>
<feColorMatrix type="matrix" values="0 0 0 0 1 0 0 0 0 0 0 0 0 0 0.683333 0 0 0 0.16 0"/>
<feBlend mode="normal" in2="BackgroundImageFix" result="effect1_dropShadow_16996_4261"/>
<feBlend mode="normal" in="SourceGraphic" in2="effect1_dropShadow_16996_4261" result="shape"/>
</filter>
<linearGradient id="paint0_linear_16996_4261" x1="30.7" y1="21.1" x2="30.7" y2="59.5" gradientUnits="userSpaceOnUse">
<stop stop-color="white"/>
<stop offset="1" stop-color="#FFB4F0" stop-opacity="0.1"/>
</linearGradient>
<linearGradient id="paint1_linear_16996_4261" x1="16.6" y1="39.1" x2="38.8" y2="16.9" gradientUnits="userSpaceOnUse">
<stop stop-color="#FF00AE"/>
<stop offset="1" stop-color="#FF97DE"/>
</linearGradient>
<linearGradient id="paint2_linear_16996_4261" x1="187.458" y1="55.5077" x2="64.0208" y2="10.218" gradientUnits="userSpaceOnUse">
<stop stop-color="#6727A6"/>
<stop offset="1" stop-color="#3C1661"/>
</linearGradient>
</defs>
</svg>
